<svg xmlns="http://www.w3.org/2000/svg" width="960" height="540" viewBox="0 0 960 540" fill="none">
  <rect width="960" height="540" fill="#0F1117"/>
  <rect x="24" y="24" width="912" height="48" rx="8" fill="#161B26"/>
  <rect x="40" y="40" width="120" height="16" rx="4" fill="#2A3142"/>
  <rect x="760" y="36" width="160" height="24" rx="6" fill="#1E2433"/>
  <rect x="24" y="88" width="210" height="88" rx="10" fill="#161B26" stroke="#2563EB" stroke-width="1.5"/>
  <rect x="246" y="88" width="210" height="88" rx="10" fill="#161B26"/>
  <rect x="468" y="88" width="210" height="88" rx="10" fill="#161B26"/>
  <rect x="690" y="88" width="246" height="88" rx="10" fill="#161B26"/>
  <rect x="40" y="104" width="80" height="8" rx="2" fill="#4B5563"/>
  <rect x="40" y="124" width="120" height="20" rx="4" fill="#E5E7EB"/>
  <rect x="40" y="152" width="64" height="8" rx="2" fill="#22C55E"/>
  <rect x="262" y="104" width="72" height="8" rx="2" fill="#4B5563"/>
  <rect x="262" y="124" width="48" height="20" rx="4" fill="#E5E7EB"/>
  <rect x="262" y="152" width="88" height="8" rx="2" fill="#6B7280"/>
  <rect x="484" y="104" width="64" height="8" rx="2" fill="#4B5563"/>
  <rect x="484" y="124" width="96" height="20" rx="4" fill="#E5E7EB"/>
  <rect x="706" y="104" width="56" height="8" rx="2" fill="#4B5563"/>
  <rect x="706" y="124" width="80" height="20" rx="4" fill="#E5E7EB"/>
  <rect x="24" y="192" width="600" height="200" rx="10" fill="#161B26"/>
  <rect x="40" y="208" width="100" height="10" rx="2" fill="#6B7280"/>
  <polyline points="40,360 120,300 200,320 280,260 360,280 440,220 520,240 600,200" stroke="#3B82F6" stroke-width="2.5" fill="none"/>
  <rect x="636" y="192" width="300" height="200" rx="10" fill="#161B26"/>
  <rect x="652" y="208" width="120" height="10" rx="2" fill="#6B7280"/>
  <rect x="652" y="232" width="268" height="36" rx="6" fill="#1E2433"/>
  <rect x="668" y="244" width="8" height="8" rx="2" fill="#EF4444"/>
  <rect x="684" y="244" width="180" height="8" rx="2" fill="#9CA3AF"/>
  <rect x="652" y="280" width="268" height="36" rx="6" fill="#1E2433"/>
  <rect x="668" y="292" width="8" height="8" rx="2" fill="#F59E0B"/>
  <rect x="684" y="292" width="160" height="8" rx="2" fill="#9CA3AF"/>
  <rect x="652" y="328" width="268" height="36" rx="6" fill="#1E2433"/>
  <rect x="668" y="340" width="8" height="8" rx="2" fill="#22C55E"/>
  <rect x="684" y="340" width="140" height="8" rx="2" fill="#9CA3AF"/>
  <rect x="24" y="408" width="456" height="108" rx="10" fill="#161B26"/>
  <rect x="40" y="424" width="88" height="10" rx="2" fill="#6B7280"/>
  <rect x="40" y="448" width="420" height="8" rx="2" fill="#2A3142"/>
  <rect x="40" y="468" width="380" height="8" rx="2" fill="#2A3142"/>
  <rect x="40" y="488" width="400" height="8" rx="2" fill="#2A3142"/>
  <rect x="492" y="408" width="444" height="108" rx="10" fill="#161B26"/>
  <rect x="508" y="424" width="72" height="10" rx="2" fill="#6B7280"/>
  <rect x="508" y="448" width="400" height="48" rx="6" fill="#1E2433"/>
</svg>
